<svg xmlns="http://www.w3.org/2000/svg" xmlns:xlink="http://www.w3.org/1999/xlink" width="300" zoomAndPan="magnify" viewBox="0 0 224.87999 132.749998" height="177" preserveAspectRatio="xMidYMid meet" version="1.0"><defs><clipPath id="a62e9307a1"><path d="M 13.410156 60 L 17 60 L 17 63 L 13.410156 63 Z M 13.410156 60 " clip-rule="nonzero"/></clipPath><clipPath id="8362ce58f6"><path d="M 31 40.796875 L 34 40.796875 L 34 45 L 31 45 Z M 31 40.796875 " clip-rule="nonzero"/></clipPath><clipPath id="9c9ca58b86"><path d="M 197 48 L 211.769531 48 L 211.769531 68 L 197 68 Z M 197 48 " clip-rule="nonzero"/></clipPath><clipPath id="2d4994289c"><path d="M 203 75 L 211.769531 75 L 211.769531 87.011719 L 203 87.011719 Z M 203 75 " clip-rule="nonzero"/></clipPath></defs><path fill="#0082c2" d="M 32.503906 49.035156 C 26.257812 49.035156 21.199219 54.613281 21.199219 61.488281 C 21.199219 66.46875 23.851562 70.769531 27.691406 72.757812 L 27.691406 74.226562 C 27.691406 75.488281 28.84375 76.515625 30.253906 76.515625 L 34.742188 76.515625 C 36.160156 76.515625 37.3125 75.484375 37.3125 74.226562 L 37.3125 72.757812 C 41.148438 70.769531 43.804688 66.46875 43.804688 61.488281 C 43.804688 54.613281 38.746094 49.035156 32.503906 49.035156 Z M 32.503906 49.035156 " fill-opacity="1" fill-rule="nonzero"/><path fill="#0082c2" d="M 36.644531 78.210938 L 28.375 78.210938 L 28.375 79.90625 L 36.644531 79.90625 Z M 36.644531 78.210938 " fill-opacity="1" fill-rule="nonzero"/><path fill="#0082c2" d="M 36.644531 81.601562 L 28.375 81.601562 L 28.375 83.292969 L 36.644531 83.292969 Z M 36.644531 81.601562 " fill-opacity="1" fill-rule="nonzero"/><path fill="#0082c2" d="M 34.171875 84.992188 L 30.851562 84.992188 L 30.851562 86.683594 L 34.171875 86.683594 Z M 34.171875 84.992188 " fill-opacity="1" fill-rule="nonzero"/><g clip-path="url(#a62e9307a1)"><path fill="#0082c2" d="M 16.699219 60.339844 L 13.410156 60.339844 L 13.410156 62.105469 L 16.675781 62.105469 C 16.667969 61.910156 16.664062 61.710938 16.664062 61.511719 C 16.664062 61.117188 16.679688 60.726562 16.699219 60.339844 Z M 16.699219 60.339844 " fill-opacity="1" fill-rule="nonzero"/></g><path fill="#0082c2" d="M 48.335938 62.105469 L 51.601562 62.105469 L 51.601562 60.339844 L 48.3125 60.339844 C 48.335938 60.726562 48.347656 61.117188 48.347656 61.511719 C 48.347656 61.714844 48.347656 61.910156 48.335938 62.105469 Z M 48.335938 62.105469 " fill-opacity="1" fill-rule="nonzero"/><g clip-path="url(#8362ce58f6)"><path fill="#0082c2" d="M 33.425781 44.089844 L 33.425781 40.796875 L 31.660156 40.796875 L 31.660156 44.085938 C 31.941406 44.070312 32.222656 44.0625 32.507812 44.0625 C 32.820312 44.0625 33.125 44.070312 33.425781 44.089844 Z M 33.425781 44.089844 " fill-opacity="1" fill-rule="nonzero"/></g><path fill="#0082c2" d="M 23.265625 43.433594 L 21.738281 44.316406 L 23.410156 47.226562 C 23.882812 46.863281 24.367188 46.527344 24.871094 46.222656 Z M 23.265625 43.433594 " fill-opacity="1" fill-rule="nonzero"/><path fill="#0082c2" d="M 16.128906 50.816406 L 15.246094 52.347656 L 18.183594 54.046875 C 18.417969 53.5 18.679688 52.964844 18.957031 52.453125 Z M 16.128906 50.816406 " fill-opacity="1" fill-rule="nonzero"/><path fill="#0082c2" d="M 49.726562 52.351562 L 48.84375 50.820312 L 46.039062 52.445312 C 46.324219 52.957031 46.585938 53.488281 46.820312 54.035156 Z M 49.726562 52.351562 " fill-opacity="1" fill-rule="nonzero"/><path fill="#0082c2" d="M 15.246094 70.296875 L 16.128906 71.828125 L 18.808594 70.277344 C 18.53125 69.761719 18.28125 69.222656 18.058594 68.671875 Z M 15.246094 70.296875 " fill-opacity="1" fill-rule="nonzero"/><path fill="#0082c2" d="M 48.84375 71.835938 L 49.726562 70.300781 L 46.945312 68.691406 C 46.71875 69.242188 46.46875 69.78125 46.195312 70.296875 Z M 48.84375 71.835938 " fill-opacity="1" fill-rule="nonzero"/><path fill="#0082c2" d="M 43.238281 44.316406 L 41.710938 43.433594 L 40.117188 46.199219 C 40.625 46.507812 41.109375 46.839844 41.582031 47.199219 L 43.242188 44.3125 Z M 43.238281 44.316406 " fill-opacity="1" fill-rule="nonzero"/><path fill="#0082c2" d="M 82.285156 67.371094 L 74.113281 67.371094 L 74.113281 49.164062 L 81.09375 49.164062 C 85.425781 49.164062 87.703125 50.726562 87.703125 53.609375 C 87.703125 56.15625 85.835938 57.457031 84.667969 57.667969 C 86.070312 57.902344 88.691406 59.125 88.691406 62.476562 C 88.691406 65.496094 86.640625 67.371094 82.285156 67.371094 Z M 80.9375 51.789062 L 77.4375 51.789062 L 77.4375 56.601562 L 80.832031 56.601562 C 82.929688 56.601562 84.414062 55.847656 84.414062 54.132812 C 84.414062 52.699219 83.351562 51.789062 80.9375 51.789062 Z M 81.042969 59.046875 L 77.4375 59.046875 L 77.4375 64.769531 L 81.714844 64.769531 C 84.226562 64.769531 85.394531 63.648438 85.394531 61.960938 C 85.394531 59.980469 83.890625 59.046875 81.039062 59.046875 Z M 81.042969 59.046875 " fill-opacity="1" fill-rule="nonzero"/><path fill="#0082c2" d="M 108.117188 60.269531 C 108.117188 64.375 106.613281 67.65625 100.828125 67.65625 C 95.042969 67.65625 93.515625 64.382812 93.515625 60.269531 L 93.515625 49.164062 L 96.835938 49.164062 L 96.835938 60.503906 C 96.835938 62.894531 97.539062 64.792969 100.828125 64.792969 C 104.121094 64.792969 104.769531 62.894531 104.769531 60.503906 L 104.769531 49.164062 L 108.117188 49.164062 Z M 108.117188 60.269531 " fill-opacity="1" fill-rule="nonzero"/><path fill="#0082c2" d="M 127.3125 62.398438 C 127.3125 65.648438 124.585938 67.652344 120.800781 67.652344 C 117.765625 67.652344 114.628906 66.375 112.859375 65.285156 L 114.363281 62.863281 C 115.945312 63.773438 118.746094 64.867188 120.71875 64.867188 C 122.328125 64.867188 123.832031 64.140625 123.832031 62.632812 C 123.832031 60.761719 121.289062 60.316406 118.175781 59.171875 C 115.914062 58.417969 113.269531 57.167969 113.269531 54 C 113.269531 50.832031 115.734375 48.878906 119.546875 48.878906 C 122.035156 48.878906 124.835938 49.761719 126.679688 50.695312 L 125.175781 53.140625 C 123.644531 52.414062 121.285156 51.683594 119.703125 51.683594 C 118.121094 51.683594 116.773438 52.308594 116.773438 53.789062 C 116.773438 55.664062 119.210938 55.894531 122.0625 56.964844 C 124.347656 57.742188 127.300781 58.992188 127.300781 62.398438 Z M 127.3125 62.398438 " fill-opacity="1" fill-rule="nonzero"/><path fill="#0082c2" d="M 132.160156 49.164062 L 135.480469 49.164062 L 135.480469 67.371094 L 132.160156 67.371094 Z M 132.160156 49.164062 " fill-opacity="1" fill-rule="nonzero"/><path fill="#0082c2" d="M 144.949219 54.105469 L 144.949219 67.371094 L 141.628906 67.371094 L 141.628906 49.164062 L 145.023438 49.164062 L 153.21875 62.402344 L 153.21875 49.164062 L 156.566406 49.164062 L 156.566406 67.371094 L 153.167969 67.371094 Z M 144.949219 54.105469 " fill-opacity="1" fill-rule="nonzero"/><path fill="#0082c2" d="M 162.714844 67.371094 L 162.714844 49.164062 L 175.0625 49.164062 L 175.0625 52.027344 L 166.039062 52.027344 L 166.039062 56.863281 L 173.457031 56.863281 L 173.457031 59.671875 L 166.039062 59.671875 L 166.039062 64.53125 L 175.195312 64.53125 L 175.195312 67.363281 L 162.714844 67.363281 Z M 162.714844 67.371094 " fill-opacity="1" fill-rule="nonzero"/><path fill="#0082c2" d="M 193.636719 62.398438 C 193.636719 65.648438 190.914062 67.652344 187.125 67.652344 C 184.089844 67.652344 180.953125 66.375 179.1875 65.285156 L 180.6875 62.863281 C 182.273438 63.773438 185.070312 64.867188 187.046875 64.867188 C 188.652344 64.867188 190.15625 64.140625 190.15625 62.632812 C 190.15625 60.761719 187.617188 60.316406 184.5 59.171875 C 182.242188 58.417969 179.597656 57.167969 179.597656 54 C 179.597656 50.832031 182.0625 48.878906 185.875 48.878906 C 188.363281 48.878906 191.164062 49.761719 193.007812 50.695312 L 191.503906 53.140625 C 189.976562 52.414062 187.613281 51.683594 186.027344 51.683594 C 184.445312 51.683594 183.097656 52.308594 183.097656 53.789062 C 183.097656 55.664062 185.539062 55.894531 188.386719 56.964844 C 190.671875 57.742188 193.628906 58.992188 193.628906 62.398438 Z M 193.636719 62.398438 " fill-opacity="1" fill-rule="nonzero"/><g clip-path="url(#9c9ca58b86)"><path fill="#0082c2" d="M 211.714844 62.398438 C 211.714844 65.648438 208.992188 67.652344 205.203125 67.652344 C 202.167969 67.652344 199.03125 66.375 197.265625 65.285156 L 198.765625 62.863281 C 200.351562 63.773438 203.148438 64.867188 205.125 64.867188 C 206.730469 64.867188 208.234375 64.140625 208.234375 62.632812 C 208.234375 60.761719 205.695312 60.316406 202.578125 59.171875 C 200.320312 58.417969 197.675781 57.167969 197.675781 54 C 197.675781 50.832031 200.140625 48.878906 203.953125 48.878906 C 206.441406 48.878906 209.242188 49.761719 211.085938 50.695312 L 209.582031 53.140625 C 208.054688 52.414062 205.691406 51.683594 204.105469 51.683594 C 202.523438 51.683594 201.175781 52.308594 201.175781 53.789062 C 201.175781 55.664062 203.617188 55.894531 206.464844 56.964844 C 208.75 57.742188 211.707031 58.992188 211.707031 62.398438 Z M 211.714844 62.398438 " fill-opacity="1" fill-rule="nonzero"/></g><path fill="#0082c2" d="M 79.679688 84.625 L 82.699219 75.5625 L 85.074219 75.5625 L 80.800781 86.832031 L 78.539062 86.832031 L 74.265625 75.5625 L 76.640625 75.5625 L 79.675781 84.625 Z M 79.679688 84.625 " fill-opacity="1" fill-rule="nonzero"/><path fill="#0082c2" d="M 87.628906 86.832031 L 87.628906 75.5625 L 95.273438 75.5625 L 95.273438 77.332031 L 89.683594 77.332031 L 89.683594 80.328125 L 94.277344 80.328125 L 94.277344 82.0625 L 89.683594 82.0625 L 89.683594 85.074219 L 95.351562 85.074219 L 95.351562 86.824219 L 87.628906 86.824219 Z M 87.628906 86.832031 " fill-opacity="1" fill-rule="nonzero"/><path fill="#0082c2" d="M 102.671875 82.324219 L 100.488281 82.324219 L 100.488281 86.835938 L 98.433594 86.835938 L 98.433594 75.566406 L 103.203125 75.566406 C 105.960938 75.566406 107.621094 76.566406 107.621094 78.945312 C 107.621094 80.878906 106.542969 81.894531 104.714844 82.214844 L 107.640625 86.835938 L 105.375 86.835938 L 102.675781 82.324219 Z M 103.136719 77.203125 L 100.488281 77.203125 L 100.488281 80.679688 L 103.085938 80.679688 C 104.5 80.679688 105.511719 80.261719 105.511719 78.941406 C 105.511719 77.621094 104.5 77.203125 103.136719 77.203125 Z M 103.136719 77.203125 " fill-opacity="1" fill-rule="nonzero"/><path fill="#0082c2" d="M 115.746094 86.832031 L 110.6875 86.832031 L 110.6875 75.5625 L 115.003906 75.5625 C 117.683594 75.5625 119.101562 76.523438 119.101562 78.3125 C 119.101562 79.890625 117.945312 80.699219 117.222656 80.824219 C 118.089844 80.96875 119.710938 81.726562 119.710938 83.800781 C 119.710938 85.671875 118.445312 86.832031 115.746094 86.832031 Z M 114.910156 77.1875 L 112.738281 77.1875 L 112.738281 80.164062 L 114.84375 80.164062 C 116.144531 80.164062 117.058594 79.699219 117.058594 78.632812 C 117.058594 77.75 116.402344 77.183594 114.902344 77.183594 Z M 114.972656 81.675781 L 112.738281 81.675781 L 112.738281 85.21875 L 115.390625 85.21875 C 116.949219 85.21875 117.667969 84.523438 117.667969 83.480469 C 117.667969 82.253906 116.738281 81.675781 114.96875 81.675781 Z M 114.972656 81.675781 " fill-opacity="1" fill-rule="nonzero"/><path fill="#0082c2" d="M 122.664062 86.832031 L 122.664062 75.5625 L 130.308594 75.5625 L 130.308594 77.332031 L 124.71875 77.332031 L 124.71875 80.328125 L 129.308594 80.328125 L 129.308594 82.0625 L 124.71875 82.0625 L 124.71875 85.074219 L 130.386719 85.074219 L 130.386719 86.824219 L 122.664062 86.824219 Z M 122.664062 86.832031 " fill-opacity="1" fill-rule="nonzero"/><path fill="#0082c2" d="M 137.914062 77.332031 L 137.914062 86.835938 L 135.84375 86.835938 L 135.84375 77.332031 L 132.4375 77.332031 L 132.4375 75.5625 L 141.28125 75.5625 L 141.28125 77.332031 L 137.910156 77.332031 Z M 137.914062 77.332031 " fill-opacity="1" fill-rule="nonzero"/><path fill="#0082c2" d="M 143.921875 86.832031 L 143.921875 75.5625 L 151.566406 75.5625 L 151.566406 77.332031 L 145.976562 77.332031 L 145.976562 80.328125 L 150.570312 80.328125 L 150.570312 82.0625 L 145.976562 82.0625 L 145.976562 85.074219 L 151.644531 85.074219 L 151.644531 86.824219 L 143.921875 86.824219 Z M 143.921875 86.832031 " fill-opacity="1" fill-rule="nonzero"/><path fill="#0082c2" d="M 158.96875 82.324219 L 156.785156 82.324219 L 156.785156 86.835938 L 154.730469 86.835938 L 154.730469 75.566406 L 159.5 75.566406 C 162.261719 75.566406 163.917969 76.566406 163.917969 78.945312 C 163.917969 80.878906 162.839844 81.894531 161.011719 82.214844 L 163.9375 86.835938 L 161.675781 86.835938 L 158.972656 82.324219 Z M 159.433594 77.203125 L 156.785156 77.203125 L 156.785156 80.679688 L 159.386719 80.679688 C 160.796875 80.679688 161.808594 80.261719 161.808594 78.941406 C 161.808594 77.621094 160.796875 77.203125 159.433594 77.203125 Z M 159.433594 77.203125 " fill-opacity="1" fill-rule="nonzero"/><path fill="#0082c2" d="M 173.644531 84.433594 L 168.957031 84.433594 L 168.15625 86.835938 L 165.90625 86.835938 L 170.179688 75.566406 L 172.445312 75.566406 L 176.703125 86.835938 L 174.46875 86.835938 Z M 169.503906 82.777344 L 173.101562 82.777344 L 171.300781 77.433594 Z M 169.503906 82.777344 " fill-opacity="1" fill-rule="nonzero"/><path fill="#0082c2" d="M 185.945312 84.433594 L 181.253906 84.433594 L 180.453125 86.835938 L 178.203125 86.835938 L 182.476562 75.566406 L 184.742188 75.566406 L 189 86.835938 L 186.765625 86.835938 Z M 181.800781 82.777344 L 185.398438 82.777344 L 183.597656 77.433594 Z M 181.800781 82.777344 " fill-opacity="1" fill-rule="nonzero"/><path fill="#0082c2" d="M 195.820312 82.324219 L 193.636719 82.324219 L 193.636719 86.835938 L 191.582031 86.835938 L 191.582031 75.566406 L 196.351562 75.566406 C 199.113281 75.566406 200.769531 76.566406 200.769531 78.945312 C 200.769531 80.878906 199.695312 81.894531 197.867188 82.214844 L 200.785156 86.835938 L 198.519531 86.835938 Z M 196.289062 77.203125 L 193.636719 77.203125 L 193.636719 80.679688 L 196.238281 80.679688 C 197.648438 80.679688 198.660156 80.261719 198.660156 78.941406 C 198.660156 77.621094 197.648438 77.203125 196.28125 77.203125 Z M 196.289062 77.203125 " fill-opacity="1" fill-rule="nonzero"/><g clip-path="url(#2d4994289c)"><path fill="#0082c2" d="M 212.019531 83.757812 C 212.019531 85.769531 210.332031 87.011719 207.988281 87.011719 C 206.109375 87.011719 204.167969 86.222656 203.074219 85.542969 L 204.007812 84.046875 C 204.988281 84.609375 206.722656 85.289062 207.9375 85.289062 C 208.933594 85.289062 209.867188 84.835938 209.867188 83.902344 C 209.867188 82.742188 208.292969 82.472656 206.367188 81.761719 C 204.96875 81.296875 203.332031 80.523438 203.332031 78.558594 C 203.332031 76.59375 204.859375 75.386719 207.21875 75.386719 C 208.761719 75.386719 210.492188 75.933594 211.636719 76.511719 L 210.703125 78.019531 C 209.757812 77.570312 208.292969 77.117188 207.316406 77.117188 C 206.339844 77.117188 205.503906 77.503906 205.503906 78.421875 C 205.503906 79.582031 207.011719 79.730469 208.78125 80.386719 C 210.191406 80.867188 212.027344 81.640625 212.027344 83.75 Z M 212.019531 83.757812 " fill-opacity="1" fill-rule="nonzero"/></g><path fill="#0082c2" d="M 61.882812 49.164062 L 60.117188 49.164062 L 60.117188 86.835938 L 61.882812 86.835938 Z M 61.882812 49.164062 " fill-opacity="1" fill-rule="nonzero"/></svg>