<?xml version="1.0" encoding="UTF-8"?>
<svg id="Laag_1" data-name="Laag 1" xmlns="http://www.w3.org/2000/svg" xmlns:xlink="http://www.w3.org/1999/xlink" viewBox="0 0 245 245">
  <defs>
    <style>
      .cls-1 {
        fill: url(#Naamloos_verloop_391-3);
      }

      .cls-1, .cls-2, .cls-3, .cls-4 {
        stroke-width: 0px;
      }

      .cls-2 {
        fill: url(#Naamloos_verloop_391-2);
      }

      .cls-3 {
        fill: url(#Naamloos_verloop_391);
      }

      .cls-4 {
        fill: #232323;
      }
    </style>
    <linearGradient id="Naamloos_verloop_391" data-name="Naamloos verloop 391" x1="175.5" y1="-41.18" x2="-54.35" y2="188.68" gradientUnits="userSpaceOnUse">
      <stop offset="0" stop-color="#ea6398"/>
      <stop offset="1" stop-color="#8d73da"/>
    </linearGradient>
    <linearGradient id="Naamloos_verloop_391-2" data-name="Naamloos verloop 391" x1="262.72" y1="46.04" x2="32.86" y2="275.9" xlink:href="#Naamloos_verloop_391"/>
    <linearGradient id="Naamloos_verloop_391-3" data-name="Naamloos verloop 391" x1="244.15" y1="27.48" x2="14.3" y2="257.33" xlink:href="#Naamloos_verloop_391"/>
  </defs>
  <g>
    <polygon class="cls-4" points="150.73 135.7 144.85 135.7 136.94 117.01 129.03 135.7 118.22 135.7 110.31 117.01 102.4 135.7 90.83 135.7 83.56 124.92 78.92 124.92 78.92 135.7 73.87 135.7 73.87 110.18 78.92 110.18 78.92 120.1 83.54 120.1 90.55 110.18 96.7 110.18 87.8 122.46 96.72 135.23 107.64 110.18 113.09 110.18 123.63 134.6 134.27 110.18 139.72 110.18 150.73 135.7"/>
    <path class="cls-4" d="M152.16,135.7v-25.52h13.91c4.86,0,8.26,3.86,8.26,8.65,0,4.77-3.48,8.75-8.26,8.75h-8.85s0,8.13,0,8.13h-5.05ZM165.83,122.82c2.52,0,3.95-2.85,3.15-5.47-.4-1.34-1.96-2.41-3.36-2.41h-8.42v7.88s8.62,0,8.62,0Z"/>
  </g>
  <g>
    <path class="cls-3" d="M48.42,122.5c0-40.66,32.96-73.62,73.62-73.62,7.97,0,15.65,1.27,22.84,3.61l24.77-42.9C155,3.42,138.92,0,122.03,0,59.52,0,7.94,46.83.47,107.32l49.17,28.57c-.8-4.34-1.22-8.82-1.22-13.39Z"/>
    <path class="cls-2" d="M195.96,24.81l-49.31,28.29c28.55,10.12,49,37.37,49,69.4,0,21.75-9.43,41.29-24.42,54.76l24.77,42.9c29.49-22.37,48.54-57.79,48.54-97.66s-19.06-75.32-48.58-97.69Z"/>
    <path class="cls-1" d="M49.99,137.73H.47c7.5,60.47,59.07,107.27,121.56,107.27,16.9,0,32.99-3.42,47.64-9.61l.15-56.9c-12.86,10.99-29.55,17.62-47.79,17.62-35.44,0-65.03-25.04-72.04-58.39Z"/>
  </g>
</svg>